<svg width="36" height="36" viewBox="0 0 36 36" fill="none" xmlns="http://www.w3.org/2000/svg">
<g id="icon/action/account_balance_wallet_24px">
<path id="icon/action/account_balance_wallet_24px_2" fill-rule="evenodd" clip-rule="evenodd" d="M30.75 7.5V10.92C31.635 11.445 32.25 12.39 32.25 13.5V22.5C32.25 23.61 31.635 24.555 30.75 25.08V28.5C30.75 30.15 29.4 31.5 27.75 31.5H6.75C5.085 31.5 3.75 30.15 3.75 28.5V7.5C3.75 5.85 5.085 4.5 6.75 4.5H27.75C29.4 4.5 30.75 5.85 30.75 7.5ZM18.7498 22.5H29.2498V13.5H18.7498V22.5ZM6.75 28.5V7.49999H27.75V10.5H18.75C17.1 10.5 15.75 11.85 15.75 13.5V22.5C15.75 24.15 17.1 25.5 18.75 25.5H27.75V28.5H6.75ZM20.9998 18C20.9998 16.7574 22.0072 15.75 23.2498 15.75C24.4925 15.75 25.4998 16.7574 25.4998 18C25.4998 19.2426 24.4925 20.25 23.2498 20.25C22.0072 20.25 20.9998 19.2426 20.9998 18Z" fill="#09C269"/>
</g>
</svg>
