<svg width="36" height="37" viewBox="0 0 36 37" fill="none" xmlns="http://www.w3.org/2000/svg">
<g id="Social Media Icon Square/Instagram">
<rect id="Social Media Icon" y="0.230469" width="36" height="36" rx="8" fill="#D8F5E7" fill-opacity="0.1"/>
<path id="Instagram" fill-rule="evenodd" clip-rule="evenodd" d="M9 18.2305C9 14.6353 9 12.8378 9.85669 11.543C10.2392 10.9649 10.7344 10.4697 11.3126 10.0872C12.6073 9.23047 14.4049 9.23047 18 9.23047C21.5951 9.23047 23.3927 9.23047 24.6874 10.0872C25.2656 10.4697 25.7608 10.9649 26.1433 11.543C27 12.8378 27 14.6353 27 18.2305C27 21.8256 27 23.6232 26.1433 24.9179C25.7608 25.4961 25.2656 25.9912 24.6874 26.3738C23.3927 27.2305 21.5951 27.2305 18 27.2305C14.4049 27.2305 12.6073 27.2305 11.3126 26.3738C10.7344 25.9912 10.2392 25.4961 9.85669 24.9179C9 23.6232 9 21.8256 9 18.2305ZM22.6593 18.2307C22.6593 20.804 20.5732 22.8901 17.9998 22.8901C15.4265 22.8901 13.3404 20.804 13.3404 18.2307C13.3404 15.6574 15.4265 13.5713 17.9998 13.5713C20.5732 13.5713 22.6593 15.6574 22.6593 18.2307ZM17.9998 21.3137C19.7025 21.3137 21.0828 19.9334 21.0828 18.2307C21.0828 16.528 19.7025 15.1477 17.9998 15.1477C16.2971 15.1477 14.9168 16.528 14.9168 18.2307C14.9168 19.9334 16.2971 21.3137 17.9998 21.3137ZM22.8433 14.432C23.4479 14.432 23.9381 13.9418 23.9381 13.3372C23.9381 12.7325 23.4479 12.2424 22.8433 12.2424C22.2386 12.2424 21.7485 12.7325 21.7485 13.3372C21.7485 13.9418 22.2386 14.432 22.8433 14.432Z" fill="#09C269"/>
</g>
</svg>
