<svg width="36" height="37" viewBox="0 0 36 37" fill="none" xmlns="http://www.w3.org/2000/svg">
<g id="Social Media Icon Square/LinkedIn">
<g id="Group 73">
<rect id="Social Media Icon" y="0.230469" width="36" height="36" rx="8" fill="#D8F5E7" fill-opacity="0.1"/>
<path id="LinkedIn" d="M9 11.6505C9 11.0733 9.20271 10.5971 9.60811 10.222C10.0135 9.84676 10.5405 9.65918 11.1892 9.65918C11.8263 9.65918 12.3417 9.84387 12.7355 10.2133C13.1409 10.5942 13.3436 11.0906 13.3436 11.7025C13.3436 12.2566 13.1467 12.7183 12.7529 13.0877C12.3475 13.4687 11.8147 13.6592 11.1544 13.6592H11.1371C10.5 13.6592 9.98456 13.4687 9.59073 13.0877C9.19691 12.7068 9 12.2277 9 11.6505ZM9.22587 26.802V15.2349H13.083V26.802H9.22587ZM15.2201 26.802H19.0772V20.3432C19.0772 19.9391 19.1236 19.6274 19.2162 19.4081C19.3784 19.0156 19.6245 18.6837 19.9546 18.4124C20.2847 18.1411 20.6988 18.0055 21.1969 18.0055C22.4942 18.0055 23.1429 18.8771 23.1429 20.6202V26.802H27V20.17C27 18.4615 26.5946 17.1657 25.7838 16.2826C24.973 15.3994 23.9015 14.9579 22.5695 14.9579C21.0753 14.9579 19.9112 15.5986 19.0772 16.88V16.9146H19.0598L19.0772 16.88V15.2349H15.2201C15.2432 15.6043 15.2548 16.753 15.2548 18.6808C15.2548 20.6087 15.2432 23.3157 15.2201 26.802Z" fill="#09C269"/>
</g>
</g>
</svg>
