<svg width="43" height="25" viewBox="0 0 43 25" fill="none" xmlns="http://www.w3.org/2000/svg">
<path d="M39.4647 20.5008C37.3788 22.7689 34.6059 24.0181 31.6564 24.0181C28.7069 24.0181 25.934 22.7689 23.8484 20.5011C23.8484 20.5008 13.5438 9.2892 13.5438 9.2892C12.1645 7.78953 9.92059 7.78953 8.54161 9.2892C7.87346 10.0155 7.50567 10.9816 7.50567 12.009C7.50567 13.0364 7.87346 14.0026 8.54161 14.7288C9.23126 15.4789 10.1369 15.8537 11.0425 15.8537C11.9482 15.8537 12.8541 15.4785 13.5434 14.7288L14.2748 13.9335L19.5809 19.7068L18.8508 20.5008C16.7653 22.7689 13.9923 24.0181 11.0425 24.0181C8.09303 24.0181 5.31978 22.7689 3.23422 20.5008C1.14865 18.2323 0 15.2167 0 12.009C0 8.80136 1.14865 5.78536 3.23422 3.51725C5.31978 1.24914 8.09303 -5.72205e-05 11.0425 -5.72205e-05C13.992 -5.72205e-05 16.765 1.24879 18.8505 3.51689L26.6549 12.0083L29.148 14.721L29.1552 14.7288C30.5345 16.2285 32.7784 16.2285 34.1573 14.7288C34.8255 14.0026 35.1933 13.0364 35.1933 12.009C35.1933 10.9816 34.8255 10.0155 34.1573 9.2892C32.7784 7.78953 30.5345 7.78953 29.1552 9.2892L28.4238 10.0846L23.1177 4.31119L23.8481 3.51725C25.9337 1.24914 28.7066 -5.72205e-05 31.6561 -5.72205e-05C34.6056 -5.72205e-05 37.3788 1.24914 39.4644 3.51725C41.5503 5.78536 42.6989 8.80136 42.6989 12.009C42.6989 15.2167 41.5503 18.2323 39.4647 20.5008Z" fill="#09C269"/>
</svg>
