<svg width="64" height="36" viewBox="0 0 64 36" fill="none" xmlns="http://www.w3.org/2000/svg">
<path id="Vector" d="M59.1523 30.728C56.0259 34.1276 51.8696 36 47.4487 36C43.0278 36 38.8716 34.1276 35.7456 30.7286C35.7456 30.728 20.3003 13.9234 20.3003 13.9234C18.2329 11.6755 14.8696 11.6755 12.8027 13.9234C11.8013 15.0119 11.25 16.46 11.25 18C11.25 19.54 11.8013 20.9881 12.8027 22.0766C13.8364 23.2008 15.1938 23.7626 16.5513 23.7626C17.9087 23.7626 19.2666 23.2003 20.2998 22.0766L21.396 20.8845L29.3491 29.538L28.2549 30.728C25.1289 34.1276 20.9727 36 16.5513 36C12.1304 36 7.97363 34.1276 4.84766 30.728C1.72168 27.3279 0 22.8079 0 18C0 13.1921 1.72168 8.67156 4.84766 5.27197C7.97363 1.87238 12.1304 0 16.5513 0C20.9722 0 25.1284 1.87185 28.2544 5.27144L39.9521 17.9989L43.689 22.065L43.6997 22.0766C45.7671 24.3245 49.1304 24.3245 51.1973 22.0766C52.1987 20.9881 52.75 19.54 52.75 18C52.75 16.46 52.1987 15.0119 51.1973 13.9234C49.1304 11.6755 45.7671 11.6755 43.6997 13.9234L42.6035 15.1155L34.6504 6.46199L35.7451 5.27197C38.8711 1.87238 43.0273 0 47.4482 0C51.8691 0 56.0259 1.87238 59.1519 5.27197C62.2783 8.67156 64 13.1921 64 18C64 22.8079 62.2783 27.3279 59.1523 30.728Z" fill="#09C269"/>
</svg>
