<svg width="36" height="36" viewBox="0 0 36 36" fill="none" xmlns="http://www.w3.org/2000/svg">
<g id="feather-icon / wind">
<path id="Shape" d="M13.3212 5.82753C12.7372 6.41505 12.74 7.3648 13.3275 7.94884C13.915 8.53289 14.8647 8.53008 15.4488 7.94256L13.3212 5.82753ZM16.5 12L16.5063 10.5H16.5V12ZM3 10.5C2.17157 10.5 1.5 11.1716 1.5 12C1.5 12.8285 2.17157 13.5 3 13.5V10.5ZM19.9488 28.0575C19.3647 27.47 18.415 27.4672 17.8275 28.0512C17.24 28.6353 17.2372 29.585 17.8212 30.1726L19.9488 28.0575ZM21 24V25.5001L21.0063 25.5L21 24ZM3 22.5C2.17157 22.5 1.5 23.1716 1.5 24C1.5 24.8285 2.17157 25.5 3 25.5V22.5ZM25.5357 10.533C24.9492 11.1181 24.948 12.0678 25.533 12.6544C26.118 13.2409 27.0678 13.2421 27.6543 12.6571L25.5357 10.533ZM29.25 18.0001V19.5001L29.2527 19.5L29.25 18.0001ZM3 16.5001C2.17157 16.5001 1.5 17.1716 1.5 18.0001C1.5 18.8285 2.17157 19.5001 3 19.5001V16.5001ZM15.4488 7.94256C15.9284 7.46013 16.6725 7.36082 17.2618 7.7006L18.7604 5.10166C16.9925 4.08232 14.7599 4.38026 13.3212 5.82753L15.4488 7.94256ZM17.2618 7.7006C17.8511 8.04038 18.138 8.73418 17.9608 9.39093L20.8571 10.1726C21.3889 8.20241 20.5283 6.12101 18.7604 5.10166L17.2618 7.7006ZM17.9608 9.39093C17.7835 10.0477 17.1865 10.5029 16.5063 10.5001L16.4937 13.5C18.5344 13.5086 20.3254 12.1429 20.8571 10.1726L17.9608 9.39093ZM16.5 10.5H3V13.5H16.5V10.5ZM17.8212 30.1726C19.2599 31.6198 21.4925 31.9178 23.2604 30.8984L21.7618 28.2995C21.1725 28.6393 20.4284 28.54 19.9488 28.0575L17.8212 30.1726ZM23.2604 30.8984C25.0283 29.8791 25.8889 27.7977 25.3571 25.8275L22.4608 26.6092C22.638 27.2659 22.3511 27.9597 21.7618 28.2995L23.2604 30.8984ZM25.3571 25.8275C24.8254 23.8572 23.0344 22.4915 20.9937 22.5001L21.0063 25.5C21.6865 25.4972 22.2835 25.9524 22.4608 26.6092L25.3571 25.8275ZM21 22.5H3V25.5H21V22.5ZM27.6543 12.6571C28.3747 11.9385 29.4877 11.7928 30.3688 12.3018L31.8694 9.70407C29.8136 8.51647 27.2166 8.85637 25.5357 10.533L27.6543 12.6571ZM30.3688 12.3018C31.2498 12.8108 31.6797 13.8477 31.4171 14.8307L34.3154 15.6049C34.9282 13.3112 33.9252 10.8917 31.8694 9.70407L30.3688 12.3018ZM31.4171 14.8307C31.1545 15.8138 30.2648 16.4982 29.2473 16.5001L29.2527 19.5C31.6269 19.4958 33.7027 17.8987 34.3154 15.6049L31.4171 14.8307ZM29.25 16.5001H3V19.5001H29.25V16.5001Z" fill="#09C269"/>
</g>
</svg>
